# xmcd
#
# Track frame offsets: 
#        150
#        31838
#        53526
#        89163
#        103356
#        113116
#        134337
#        147209
#        171661
#        183558
#        208611
#        220276
#        248548
#        259633
#        272580
#        304624
#        325305
#        345453
#
# Disc length: 4797 seconds
#
# Revision: 1
# Processed by: cddbd v1.5.2PL0 Copyright (c) Steve Scherf et al.
# Submitted via: ExactAudioCopy v1.3
#
DISCID=0f12bb12
DTITLE=Various Artist - Akella Presents - vol.71 - Russia and USA Blues
DTITLE=CD2
DYEAR=2016
DGENRE=Blues
TTITLE0=Nickolay Sadikov and Blues Hammerr Band - Shake Your Hips
TTITLE1=Crossroads - Southern Woman
TTITLE2=Blues Cousins - The Dream
TTITLE3=Mike Griffin and The Unknown Blues Band - Blue Looks Good On You
TTITLE4=Alexander Dolgov and The Rain Group - Boogie Woogie Girl
TTITLE5=Arsen Shomakhov - Big City Blues
TTITLE6=Youddiph - My Boy Is Drivin' A Bus
TTITLE7=Melvin Taylor and The Slack Band - Another Bad Day
TTITLE8=Alexander Rastopchin - Immigrant Song (PagePlant)
TTITLE9=Mishouris Blues Band - Big River (You're Calling Me Back Home)
TTITLE10=Off Beat - Spody Ody
TTITLE11=Jackie Payne - Day In The Life (of a Bluesman)
TTITLE12=The Black Bread and Dr. Agranovsky - Crossroads Blues
TTITLE13=Blues League - Johnny B. Goode
TTITLE14=Blacktop Deluxe - Colour Me Gone
TTITLE15=Blues Cousins - I'll Be Waiting
TTITLE16=Eric Culberson - Morning Light Blues
TTITLE17=Bratetsky and Korablin - 32-20 Blues
EXTD=
EXTT0=
EXTT1=
EXTT2=
EXTT3=
EXTT4=
EXTT5=
EXTT6=
EXTT7=
EXTT8=
EXTT9=
EXTT10=
EXTT11=
EXTT12=
EXTT13=
EXTT14=
EXTT15=
EXTT16=
EXTT17=
PLAYORDER=
